<svg xmlns="http://www.w3.org/2000/svg" xmlns:xlink="http://www.w3.org/1999/xlink" width="512" zoomAndPan="magnify" viewBox="0 0 384 383.999986" height="512" preserveAspectRatio="xMidYMid meet" version="1.0"><defs><clipPath id="852489c887"><path d="M 27.296875 19 L 334 19 L 334 365 L 27.296875 365 Z M 27.296875 19 " clip-rule="nonzero"/></clipPath><clipPath id="fa41630e65"><path d="M 320.683594 214.882812 L 67.523438 361.109375 C 59.355469 365.828125 49.289062 365.832031 41.117188 361.113281 C 32.945312 356.398438 27.910156 347.679688 27.910156 338.242188 L 27.910156 45.753906 C 27.910156 36.320312 32.945312 27.601562 41.117188 22.882812 C 49.289062 18.167969 59.355469 18.167969 67.523438 22.886719 L 320.683594 169.117188 C 328.855469 173.835938 333.890625 182.558594 333.890625 192 C 333.890625 201.4375 328.855469 210.160156 320.683594 214.882812 Z M 320.683594 214.882812 " clip-rule="nonzero"/></clipPath><clipPath id="a6f5af4e02"><path d="M 181.699219 152.675781 L 251.320312 152.675781 L 251.320312 231.578125 L 181.699219 231.578125 Z M 181.699219 152.675781 " clip-rule="nonzero"/></clipPath><clipPath id="29a23748de"><path d="M 248.816406 196.136719 L 188.976562 230.703125 C 187.503906 231.554688 185.6875 231.554688 184.214844 230.703125 C 182.738281 229.855469 181.832031 228.28125 181.832031 226.582031 L 181.832031 157.441406 C 181.832031 155.742188 182.738281 154.167969 184.214844 153.320312 C 185.6875 152.46875 187.503906 152.46875 188.976562 153.320312 L 248.816406 187.886719 C 250.292969 188.738281 251.199219 190.308594 251.199219 192.011719 C 251.199219 193.714844 250.292969 195.285156 248.816406 196.136719 Z M 248.816406 196.136719 " clip-rule="nonzero"/></clipPath><clipPath id="5615448fca"><path d="M 0.699219 0.675781 L 70.28125 0.675781 L 70.28125 79.578125 L 0.699219 79.578125 Z M 0.699219 0.675781 " clip-rule="nonzero"/></clipPath><clipPath id="ae338586d6"><path d="M 67.816406 44.136719 L 7.976562 78.703125 C 6.503906 79.554688 4.6875 79.554688 3.214844 78.703125 C 1.738281 77.855469 0.832031 76.28125 0.832031 74.582031 L 0.832031 5.441406 C 0.832031 3.742188 1.738281 2.167969 3.214844 1.320312 C 4.6875 0.46875 6.503906 0.46875 7.976562 1.320312 L 67.816406 35.886719 C 69.292969 36.738281 70.199219 38.308594 70.199219 40.011719 C 70.199219 41.714844 69.292969 43.285156 67.816406 44.136719 Z M 67.816406 44.136719 " clip-rule="nonzero"/></clipPath><clipPath id="c014e0b71b"><rect x="0" width="71" y="0" height="80"/></clipPath></defs><g clip-path="url(#852489c887)"><g clip-path="url(#fa41630e65)"><path stroke-linecap="butt" transform="matrix(0, 0.75, -0.75, 0, 360.298368, 0.00564382)" fill="none" stroke-linejoin="miter" d="M 286.502914 52.819704 L 481.47168 390.366605 C 487.763347 401.257231 487.768555 414.679107 481.476888 425.574941 C 475.190429 436.470776 463.565428 443.184318 450.982094 443.184318 L 60.997688 443.184318 C 48.419562 443.184318 36.794561 436.470776 30.502894 425.574941 C 24.216435 414.679107 24.216435 401.257231 30.508102 390.366605 L 225.482076 52.819704 C 231.773743 41.923869 243.403953 35.210327 255.992495 35.210327 C 268.57583 35.210327 280.206039 41.923869 286.502914 52.819704 Z M 286.502914 52.819704 " stroke="#ec9347" stroke-width="36" stroke-opacity="1" stroke-miterlimit="4"/></g></g><g clip-path="url(#a6f5af4e02)"><g clip-path="url(#29a23748de)"><g transform="matrix(1, 0, 0, 1, 181, 152)"><g clip-path="url(#c014e0b71b)"><g clip-path="url(#5615448fca)"><g clip-path="url(#ae338586d6)"><path fill="#2d2d2b" d="M 74.960938 -2.804688 L 74.960938 82.769531 L 0.699219 82.769531 L 0.699219 -2.804688 Z M 74.960938 -2.804688 " fill-opacity="1" fill-rule="nonzero"/></g></g></g></g></g></g></svg>